<svg xmlns="http://www.w3.org/2000/svg" viewBox="0 0 186.65 135.78"><defs><style>.cls-1,.cls-2{fill:none;stroke:#49c4e8;}.cls-1,.cls-2,.cls-3{stroke-miterlimit:10;}.cls-1{stroke-width:2px;}.cls-3{font-size:60px;fill:#49c4e8;stroke:#395caa;font-family:Rockwell-CondensedBold, Rockwell Condensed;font-weight:700;}.cls-4{letter-spacing:-0.2em;}</style></defs><g id="Layer_2" data-name="Layer 2"><g id="Layer_1-2" data-name="Layer 1"><polyline class="cls-1" points="34.16 5.92 45.2 1.09 92.53 22.01 83.06 26.83"/><polyline class="cls-1" points="92.53 22.01 92.53 64.64 49.14 98.43 1.81 71.08 34.16 46.94"/><polygon class="cls-1" points="34.16 5.92 83.06 26.83 83.06 71.08 34.16 46.94 34.16 5.92"/><polyline class="cls-1" points="1.81 71.08 1.81 78.32 50.72 105.67 49.14 98.43"/><polyline class="cls-1" points="92.53 64.64 92.53 71.08 50.72 105.67"/><polygon class="cls-2" points="37.9 13.96 37.9 15.67 37.9 43.61 78.58 64.64 78.58 29.64 37.9 13.96"/><polyline class="cls-1" points="154.85 6.79 144.59 1.97 100.58 22.88 109.39 27.71"/><polyline class="cls-1" points="100.58 22.88 100.58 65.51 140.92 99.3 184.92 71.95 154.85 47.82"/><polygon class="cls-1" points="154.85 6.79 109.39 27.71 109.39 71.95 154.85 47.82 154.85 6.79"/><polyline class="cls-1" points="184.92 71.95 184.92 79.19 139.45 106.54 140.92 99.3"/><polyline class="cls-1" points="100.58 65.51 100.58 71.95 139.45 106.54"/><polygon class="cls-2" points="151.37 14.84 151.37 16.55 151.37 44.48 113.55 65.51 113.55 30.51 151.37 14.84"/><polyline class="cls-2" points="45.24 16.79 45.24 22.88 50.72 26.83 47.98 30.46"/><ellipse class="cls-2" cx="46.68" cy="31.8" rx="1.31" ry="1.33"/><ellipse class="cls-2" cx="55.99" cy="33.61" rx="1.31" ry="1.33"/><line class="cls-2" x1="49.41" y1="29.5" x2="54.68" y2="33.13"/><polyline class="cls-2" points="45.24 47.41 50.12 44.43 54.68 47.41 57.3 43.88"/><ellipse class="cls-2" cx="47.17" cy="40.18" rx="1.31" ry="1.33"/><ellipse class="cls-2" cx="58.24" cy="42.55" rx="1.31" ry="1.33"/><line class="cls-2" x1="50.12" y1="44.43" x2="47.98" y2="41.21"/><polyline class="cls-2" points="66.35 24.93 68.78 30.46 65.69 33.61 68.78 38.84 72.67 38.5"/><ellipse class="cls-2" cx="73.98" cy="38.84" rx="1.31" ry="1.33"/><ellipse class="cls-2" cx="62.81" cy="37.51" rx="1.31" ry="1.33"/><line class="cls-2" x1="65.69" y1="33.61" x2="63.34" y2="36.3"/><polyline class="cls-2" points="65.69 43.88 67.9 46.43 71.63 50.73"/><line class="cls-2" x1="65.16" y1="50.04" x2="67.97" y2="47.3"/><ellipse class="cls-2" cx="71.63" cy="51.68" rx="1.31" ry="1.33"/><ellipse class="cls-2" cx="64.52" cy="50.73" rx="1.31" ry="1.33"/><ellipse class="cls-2" cx="65.16" cy="43.07" rx="1.31" ry="1.33"/><line class="cls-2" x1="45.24" y1="22.88" x2="41.93" y2="24.93"/><ellipse class="cls-2" cx="40.62" cy="25.5" rx="1.31" ry="1.33"/><polyline class="cls-2" points="120.02 27.83 120.02 33.13 126.31 33.13 124.1 39.37"/><line class="cls-2" x1="126.31" y1="33.13" x2="131.15" y2="34.95"/><ellipse class="cls-2" cx="123.17" cy="40.18" rx="1.31" ry="1.33"/><ellipse class="cls-2" cx="132.45" cy="35.37" rx="1.31" ry="1.33"/><polyline class="cls-2" points="113.55 56.48 118.46 53.02 122.62 54.75 123.83 48.67"/><ellipse class="cls-2" cx="123.17" cy="56.48" rx="1.31" ry="1.33"/><ellipse class="cls-2" cx="124.47" cy="47.4" rx="1.31" ry="1.33"/><polyline class="cls-2" points="137.74 52.06 136.72 47.3 133.76 44.43"/><ellipse class="cls-2" cx="133.43" cy="43.88" rx="1.31" ry="1.33"/><polyline class="cls-2" points="151.37 24.93 144.51 29.5 137.74 28.82"/><polyline class="cls-2" points="144.51 29.5 141.42 34.04 144.56 36.71 143.57 40.17"/><ellipse class="cls-2" cx="136.04" cy="28.55" rx="1.31" ry="1.33"/><ellipse class="cls-2" cx="143.25" cy="41.21" rx="1.31" ry="1.33"/><text class="cls-3" transform="translate(64.72 121.83)"><tspan class="cls-4">P</tspan><tspan x="20.51" y="0">.P</tspan></text></g></g></svg>